# xmcd CD database file
#
# Track frame offsets:
#	150
#	21447
#	39790
#	56257
#	79027
#	98217
#	114670
#	130862
#	149425
#	171010
#	192960
#	210342
#
# Disc length: 3072 seconds
#
# Revision: 0
# Processed by: cddbd v1.5.1PL2 Copyright (c) Steve Scherf et al.
# Submitted via: CDex 1.51
#
DISCID=9a0bfe0c
DTITLE=Little Non - 桃色夜行列車
DYEAR=2006
DGENRE=General Pop
TTITLE0=桃色夜行列車
TTITLE1=少年気流
TTITLE2=赤い自転車
TTITLE3=止まらない雨
TTITLE4=サクラサク
TTITLE5=サンバDeサンタ！
TTITLE6=チュビ?チュバ
TTITLE7=レッツ ゴー ハッピー
TTITLE8=さぁ伝えよう
TTITLE9=愛が逃げるの
TTITLE10=あきらめないで
TTITLE11=明日また会おうね
EXTD=YEAR: 2006
EXTT0=
EXTT1=
EXTT2=
EXTT3=
EXTT4=
EXTT5=
EXTT6=
EXTT7=
EXTT8=
EXTT9=
EXTT10=
EXTT11=
PLAYORDER=
